<svg width="45" height="45" viewBox="0 0 45 45" fill="none" xmlns="http://www.w3.org/2000/svg">
<rect width="45" height="45" rx="22.5" fill="black"/>
<g clip-path="url(#clip0_5045_3660)">
<path d="M22.2227 16.8846C23.0547 16.8846 24.0977 16.3048 24.7188 15.5318C25.2812 14.8312 25.6914 13.8528 25.6914 12.8744C25.6914 12.7416 25.6797 12.6087 25.6562 12.5C24.7305 12.5362 23.6172 13.1402 22.9492 13.9495C22.4219 14.5655 21.9414 15.5318 21.9414 16.5223C21.9414 16.6672 21.9648 16.8121 21.9766 16.8605C22.0352 16.8725 22.1289 16.8846 22.2227 16.8846ZM19.293 31.5C20.4297 31.5 20.9336 30.7149 22.3516 30.7149C23.793 30.7149 24.1094 31.4758 25.375 31.4758C26.6172 31.4758 27.4492 30.2921 28.2344 29.1325C29.1133 27.8039 29.4766 26.4994 29.5 26.439C29.418 26.4148 27.0391 25.4123 27.0391 22.5979C27.0391 20.158 28.9141 19.0588 29.0195 18.9743C27.7773 17.1383 25.8906 17.09 25.375 17.09C23.9805 17.09 22.8438 17.9596 22.1289 17.9596C21.3555 17.9596 20.3359 17.1383 19.1289 17.1383C16.832 17.1383 14.5 19.095 14.5 22.7912C14.5 25.0861 15.3672 27.514 16.4336 29.0842C17.3477 30.4129 18.1445 31.5 19.293 31.5Z" fill="white"/>
</g>
<defs>
<clipPath id="clip0_5045_3660">
<rect width="16" height="20" fill="white" transform="translate(14.5 12.5)"/>
</clipPath>
</defs>
</svg>
