<svg width="45" height="45" viewBox="0 0 45 45" fill="none" xmlns="http://www.w3.org/2000/svg">
<rect x="0.25" y="0.25" width="44.5" height="44.5" rx="22.25" fill="white"/>
<rect x="0.25" y="0.25" width="44.5" height="44.5" rx="22.25" stroke="#747775" stroke-width="0.5"/>
<path fill-rule="evenodd" clip-rule="evenodd" d="M31.14 22.7046C31.14 22.0664 31.0827 21.4527 30.9764 20.8636H22.5V24.345H27.3436C27.135 25.47 26.5009 26.4232 25.5477 27.0614V29.3196H28.4564C30.1582 27.7527 31.14 25.4455 31.14 22.7046Z" fill="#4285F4"/>
<path fill-rule="evenodd" clip-rule="evenodd" d="M22.4998 31.5C24.9298 31.5 26.967 30.6941 28.4561 29.3195L25.5475 27.0613C24.7416 27.6013 23.7107 27.9204 22.4998 27.9204C20.1557 27.9204 18.1716 26.3372 17.4638 24.21H14.457V26.5418C15.9379 29.4831 18.9816 31.5 22.4998 31.5Z" fill="#34A853"/>
<path fill-rule="evenodd" clip-rule="evenodd" d="M17.4641 24.2099C17.2841 23.6699 17.1818 23.0931 17.1818 22.4999C17.1818 21.9068 17.2841 21.3299 17.4641 20.7899V18.4581H14.4573C13.8477 19.6731 13.5 21.0477 13.5 22.4999C13.5 23.9522 13.8477 25.3268 14.4573 26.5418L17.4641 24.2099Z" fill="#FBBC05"/>
<path fill-rule="evenodd" clip-rule="evenodd" d="M22.4998 17.0795C23.8211 17.0795 25.0075 17.5336 25.9402 18.4255L28.5216 15.8441C26.9629 14.3918 24.9257 13.5 22.4998 13.5C18.9816 13.5 15.9379 15.5168 14.457 18.4582L17.4638 20.79C18.1716 18.6627 20.1557 17.0795 22.4998 17.0795Z" fill="#EA4335"/>
</svg>
