<svg width="132" height="47" viewBox="0 0 132 47" fill="none" xmlns="http://www.w3.org/2000/svg">
<path d="M18.04 0.679998C18.92 0.679998 19.2 0.959998 18.88 1.52C21.44 1.33333 23.68 1.92 25.6 3.28C27.5467 4.64 28.6533 6.64 28.92 9.28C29.2133 11.8933 29.16 14.3733 28.76 16.72C28.36 19.04 27.7467 21.12 26.92 22.96C26.12 24.8 25.0933 26.5333 23.84 28.16C22.5867 29.7867 21.0533 30.8667 19.24 31.4C17.4533 31.9067 15.5733 32.0533 13.6 31.84C11.6533 31.6 9.74667 30.88 7.88 29.68C7.42667 30.6133 6.98667 31.2933 6.56 31.72C6.13333 32.1467 5.69333 32.3867 5.24 32.44C4.78667 32.4933 4.24 32.4667 3.6 32.36C2.98667 32.2533 2.38667 31.8267 1.8 31.08C1.24 30.3333 1.2 29.48 1.68 28.52C2.16 27.5333 2.8 26.9333 3.6 26.72C4.4 26.48 5.41333 26.6133 6.64 27.12L15.92 3.52C13.4133 3.94667 11.72 4.53333 10.84 5.28C9.96 6.02666 9.49333 6.69333 9.44 7.28C9.41333 7.84 9.65333 8.29333 10.16 8.64C10.6667 8.96 10.8533 9.30667 10.72 9.68C10.6133 10.0267 10.3467 10.1733 9.92 10.12C9.52 10.04 9.08 9.8 8.6 9.4C8.14667 9 7.85333 8.53333 7.72 8C7.61333 7.46666 7.69333 6.8 7.96 6C8.22667 5.2 8.96 4.38666 10.16 3.56C11.36 2.73333 13.48 2.08 16.52 1.6C16.68 0.986665 17.1867 0.679998 18.04 0.679998ZM18.28 3.24L8.76 27.92C10.6267 29.0933 12.36 29.7867 13.96 30C15.56 30.1867 17.04 30.08 18.4 29.68C19.7867 29.2533 21.2667 27.96 22.84 25.8C24.4133 23.64 25.52 21.12 26.16 18.24C26.8 15.3333 26.9733 12.5867 26.68 10C26.3867 7.41333 25.4933 5.6 24 4.56C22.5333 3.49333 20.6267 3.05333 18.28 3.24ZM3.44 29C3.01333 29.64 3.14667 30.1867 3.84 30.64C4.56 31.0667 5.22667 30.4933 5.84 28.92C4.69333 28.3333 3.89333 28.36 3.44 29ZM40.5959 15.92C42.3826 16.2133 43.5559 16.84 44.1159 17.8C44.6759 18.76 44.8093 19.72 44.5159 20.68C44.2226 21.64 43.4493 22.4667 42.1959 23.16C40.9426 23.8533 39.6626 24.3067 38.3559 24.52C37.0759 24.7333 36.0093 24.88 35.1559 24.96C34.3026 25.04 33.0759 25.1733 31.4759 25.36C31.3959 27.0133 31.8093 28.2133 32.7159 28.96C33.6493 29.68 34.8093 30.08 36.1959 30.16C37.5826 30.2133 39.0359 30.0667 40.5559 29.72C42.0759 29.3467 43.6626 28.3333 45.3159 26.68C46.9959 25 49.1559 22.0267 51.7959 17.76V18.84C49.1559 23.32 46.9026 26.5467 45.0359 28.52C43.1959 30.4933 41.0759 31.6133 38.6759 31.88C36.2759 32.12 34.1693 31.88 32.3559 31.16C30.5693 30.4133 29.5293 29 29.2359 26.92C28.9426 24.84 29.3559 22.8267 30.4759 20.88C31.5959 18.9333 33.1159 17.5467 35.0359 16.72C36.9559 15.8933 38.8093 15.6267 40.5959 15.92ZM31.6759 23.92C35.4359 23.6 38.0759 23.1733 39.5959 22.64C41.1159 22.08 42.1159 21.4533 42.5959 20.76C43.1026 20.04 43.0893 19.3333 42.5559 18.64C42.0493 17.9467 41.1959 17.5467 39.9959 17.44C38.8226 17.3333 37.5959 17.5867 36.3159 18.2C35.0359 18.7867 33.9959 19.5867 33.1959 20.6C32.3959 21.6133 31.8893 22.72 31.6759 23.92ZM64.2903 18.64C60.3703 25.0933 57.3303 29.0133 55.1703 30.4C54.157 31.3067 52.9836 31.7333 51.6503 31.68C50.317 31.6267 49.2903 31.2667 48.5703 30.6C47.8236 29.8533 47.677 28.6133 48.1303 26.88C51.1703 18.6133 54.157 10.96 57.0903 3.92C57.6503 2.56 58.3036 1.68 59.0503 1.28C59.8236 0.879998 60.4103 0.973331 60.8103 1.56C61.237 2.12 61.357 3.05333 61.1703 4.36C60.9836 5.66667 60.557 7.10667 59.8903 8.68C59.2236 10.2267 58.3703 11.8 57.3303 13.4C56.317 14.9733 55.117 16.5333 53.7303 18.08L50.8103 25.4C50.3036 26.76 50.0503 27.8133 50.0503 28.56C50.0503 29.3067 50.4903 29.84 51.3703 30.16C52.277 30.48 53.6236 30.08 55.4103 28.96C57.2236 27.8133 60.1836 24.0267 64.2903 17.6V18.64ZM60.4903 2.48C60.277 1.89333 59.5436 3.28 58.2903 6.64L54.3303 16.48C55.1836 15.3867 55.9703 14.32 56.6903 13.28C57.4103 12.2133 58.1436 10.9067 58.8903 9.36C59.637 7.78666 60.1436 6.4 60.4103 5.2C60.7036 3.97333 60.7303 3.06667 60.4903 2.48ZM62.9941 27.04C62.5407 28.1867 62.4874 29.0267 62.8341 29.56C63.1807 30.0933 63.8207 30.3733 64.7541 30.4C65.6874 30.4267 66.8607 29.8667 68.2741 28.72C69.7141 27.5733 72.2874 23.88 75.9941 17.64V18.72C72.6074 24.5867 70.0874 28.28 68.4341 29.8C66.8074 31.32 64.9674 31.9333 62.9141 31.64C62.0874 31.64 61.3674 31.2933 60.7541 30.6C60.1674 29.9067 60.1274 28.72 60.6341 27.04L64.2341 17.76C64.5807 16.9067 65.1274 16.5733 65.8741 16.76C66.6207 16.92 66.7807 17.4667 66.3541 18.4L62.9941 27.04ZM66.1141 11.84C66.1141 11.44 66.2474 11.0933 66.5141 10.8C66.8074 10.5067 67.1541 10.36 67.5541 10.36C67.9541 10.36 68.3007 10.5067 68.5941 10.8C68.8874 11.0933 69.0341 11.44 69.0341 11.84C69.0341 12.24 68.8874 12.5867 68.5941 12.88C68.3007 13.1467 67.9541 13.28 67.5541 13.28C67.1541 13.28 66.8074 13.1467 66.5141 12.88C66.2474 12.5867 66.1141 12.24 66.1141 11.84ZM86.9872 20.84C86.3739 22.7333 85.1205 25.8267 83.2272 30.12C86.9872 27 90.4805 22.8667 93.7072 17.72V18.8C90.4005 24.1867 86.7339 28.4133 82.7072 31.48C80.2272 38.1733 78.4805 42.1467 77.4672 43.4C76.4539 44.6533 75.2805 45.44 73.9472 45.76C72.6405 46.08 71.1872 45.9867 69.5872 45.48C67.9872 45 67.0272 43.9333 66.7072 42.28C66.3605 40.6267 66.6139 39.1733 67.4672 37.92C68.2939 36.6667 69.6272 35.6 71.4672 34.72C73.3072 33.84 76.2672 32.7467 80.3472 31.44L81.6672 28.24C80.3339 29.36 78.6672 29.9733 76.6672 30.08C74.6939 30.16 73.2672 29.76 72.3872 28.88C71.5339 27.9733 71.2139 26.4267 71.4272 24.24C71.6405 22.0533 72.5872 20.2 74.2672 18.68C75.9472 17.1333 77.8939 16.2 80.1072 15.88C82.3205 15.5333 84.1739 15.8 85.6672 16.68C87.1872 17.56 87.6272 18.9467 86.9872 20.84ZM79.1472 17.88C77.6539 18.36 76.4139 19.2933 75.4272 20.68C74.4405 22.0667 73.8805 23.5467 73.7472 25.12C73.6405 26.6667 74.0005 27.64 74.8272 28.04C75.6805 28.44 76.5739 28.5333 77.5072 28.32C78.4405 28.1067 79.3739 27.72 80.3072 27.16C81.2405 26.6 82.0405 25.8133 82.7072 24.8C83.3739 23.7867 84.0005 22.4667 84.5872 20.84C85.1739 19.1867 84.7872 18.16 83.4272 17.76C82.0939 17.3333 80.6672 17.3733 79.1472 17.88ZM73.2672 43.92C74.2805 43.5467 75.1739 42.76 75.9472 41.56C76.7205 40.3867 78.0405 37.3733 79.9072 32.52C76.1205 33.64 73.3472 34.8133 71.5872 36.04C69.8539 37.2667 68.9605 38.72 68.9072 40.4C68.8272 42.08 69.2805 43.1733 70.2672 43.68C71.2539 44.2133 72.2539 44.2933 73.2672 43.92ZM102.246 1.16C103.66 1.53333 103.886 3.12 102.926 5.92C101.993 8.69333 99.7263 12.2933 96.1263 16.72C97.4596 15.9467 99.3396 15.64 101.766 15.8C104.406 15.96 105.793 16.8667 105.926 18.52C105.82 19.72 104.62 23.2133 102.326 29C101.953 29.7733 102.26 30.0267 103.246 29.76C104.26 29.4933 105.406 28.68 106.686 27.32C107.966 25.96 110.26 22.76 113.566 17.72V18.84C110.473 23.8533 108.033 27.2267 106.246 28.96C104.486 30.6933 102.86 31.4667 101.366 31.28C99.8996 31.0667 99.4329 30.2533 99.9663 28.84L103.206 20.32C103.633 19.04 103.446 18.2133 102.646 17.84C101.873 17.4667 100.98 17.3067 99.9663 17.36C98.9796 17.4133 97.9929 17.6533 97.0063 18.08C96.0196 18.5067 95.2063 19.3467 94.5663 20.6L90.8463 29.8C90.4729 30.8667 89.8729 31.3733 89.0463 31.32C88.2463 31.24 88.0596 30.6667 88.4863 29.6L92.7663 19.04L98.9663 3.4C99.7396 1.50666 100.833 0.759998 102.246 1.16ZM96.8063 14.64C98.6729 12.3733 100.1 10.24 101.086 8.24C102.1 6.21333 102.646 4.8 102.726 4C102.833 3.17333 102.726 2.68 102.406 2.52C102.086 2.36 101.793 2.57333 101.526 3.16C101.26 3.72 99.6863 7.54667 96.8063 14.64ZM116.328 16.2H120.608C121.355 16.2 121.715 16.44 121.688 16.92C121.688 17.3733 121.328 17.6 120.608 17.6H115.768L113.768 23.44C112.835 25.84 112.475 27.4133 112.688 28.16C112.928 28.88 113.395 29.4 114.088 29.72C114.808 30.0133 115.701 30.0933 116.768 29.96C117.835 29.8267 119.088 29.1867 120.528 28.04C121.968 26.8933 124.555 23.3733 128.288 17.48V18.56C125.008 24.1333 122.381 27.6933 120.408 29.24C118.435 30.76 116.568 31.48 114.808 31.4C113.075 31.32 111.808 30.6667 111.008 29.44C110.368 28.48 110.208 27.3067 110.528 25.92C110.848 24.5333 111.808 21.76 113.408 17.6H109.128C108.275 17.6 107.848 17.3733 107.848 16.92C107.875 16.4667 108.341 16.2133 109.248 16.16L113.968 16.12L118.848 2.84C119.275 1.56 119.848 1.01333 120.568 1.2C121.288 1.36 121.581 1.74666 121.448 2.36L116.328 16.2Z" fill="black"/>
<path d="M128.5 10L129.581 12.3039L132 12.6756L130.25 14.4679L130.663 17L128.5 15.8039L126.337 17L126.75 14.4679L125 12.6756L127.418 12.3039L128.5 10Z" fill="black"/>
</svg>
