<svg width="659" height="75" viewBox="0 0 659 75" fill="none" xmlns="http://www.w3.org/2000/svg">
<path d="M41.02 1.55C44.8 1.55 47.77 2.48 49.93 4.34C52.09 6.2 53.35 8.95999 53.71 12.62C54.13 16.22 53.41 20.3 51.55 24.86C50.11 28.22 48.76 29.78 47.5 29.54C46.24 29.24 46.06 28.1 46.96 26.12C48.34 23.36 49.09 20.15 49.21 16.49C49.33 12.77 48.67 9.98 47.23 8.12C45.79 6.26 43.42 5.42 40.12 5.6C36.88 5.78 33.97 6.47 31.39 7.67C28.87 8.87 26.29 10.55 23.65 12.71C21.07 14.87 18.52 17.72 16 21.26C13.54 24.8 11.53 28.61 9.97 32.69C8.41 36.71 7.36 40.82 6.82 45.02C6.28 49.16 6.4 53 7.18 56.54C8.02 60.02 9.64 62.78 12.04 64.82C14.44 66.8 17.56 68 21.4 68.42C25.24 68.84 28.99 68.39 32.65 67.07C36.37 65.69 39.31 63.86 41.47 61.58V64.1C38.95 66.92 35.44 69.17 30.94 70.85C26.5 72.47 21.91 72.83 17.17 71.93C12.49 70.97 8.89 69.08 6.37 66.26C3.85 63.38 2.26 60.11 1.6 56.45C1 52.73 1.03 48.59 1.69 44.03C2.35 39.41 3.46 35.18 5.02 31.34C6.58 27.44 8.47 23.72 10.69 20.18C12.91 16.64 15.61 13.4 18.79 10.46C22.03 7.52 25.6 5.3 29.5 3.8C33.4 2.3 37.24 1.55 41.02 1.55ZM79.1301 41.87C80.3901 44.45 80.7801 47.21 80.3001 50.15C79.8201 53.03 79.0401 55.73 77.9601 58.25C76.8801 60.71 75.1401 63.32 72.7401 66.08C75.2601 65.36 78.1701 63.26 81.4701 59.78C84.7701 56.24 89.6301 49.43 96.0501 39.35V41.96C90.5901 51.14 86.0301 57.62 82.3701 61.4C78.7101 65.12 75.0801 67.61 71.4801 68.87C67.8801 70.07 64.5201 70.73 61.4001 70.85C58.3401 70.91 55.5801 70.58 53.1201 69.86C50.6601 69.14 48.7401 68.09 47.3601 66.71C46.0401 65.33 45.1701 63.95 44.7501 62.57C44.3301 61.19 44.1801 59.42 44.3001 57.26C44.4201 55.1 44.8401 52.91 45.5601 50.69C46.2801 48.41 47.0301 46.55 47.8101 45.11C48.6501 43.61 49.9401 42.05 51.6801 40.43C53.4201 38.81 55.5501 37.61 58.0701 36.83C60.5901 35.99 63.3201 35.6 66.2601 35.66C69.2001 35.66 71.7501 36.05 73.9101 36.83C76.1301 37.61 77.8701 39.29 79.1301 41.87ZM50.1501 53.84C49.6701 56.6 49.5801 58.94 49.8801 60.86C50.2401 62.78 51.2301 64.31 52.8501 65.45C54.5301 66.59 56.3901 67.19 58.4301 67.25C60.5301 67.31 62.5401 66.92 64.4601 66.08C66.3801 65.24 68.0001 63.95 69.3201 62.21C70.6401 60.47 71.8701 58.43 73.0101 56.09C74.2101 53.69 74.9601 51.14 75.2601 48.44C75.5601 45.68 74.8401 43.43 73.1001 41.69C71.4201 39.95 69.1401 39.11 66.2601 39.17C63.3801 39.23 60.8901 39.83 58.7901 40.97C56.6901 42.05 54.8601 43.76 53.3001 46.1C51.7401 48.44 50.6901 51.02 50.1501 53.84ZM124.231 41.69C115.411 56.21 108.571 65.03 103.711 68.15C101.431 70.19 98.7913 71.15 95.7913 71.03C92.7913 70.91 90.4813 70.1 88.8613 68.6C87.1813 66.92 86.8513 64.13 87.8713 60.23C94.7113 41.63 101.431 24.41 108.031 8.57C109.291 5.51 110.761 3.53 112.441 2.62999C114.181 1.72999 115.501 1.94 116.401 3.26C117.361 4.51999 117.631 6.61999 117.211 9.56C116.791 12.5 115.831 15.74 114.331 19.28C112.831 22.76 110.911 26.3 108.571 29.9C106.291 33.44 103.591 36.95 100.471 40.43L93.9013 56.9C92.7613 59.96 92.1913 62.33 92.1913 64.01C92.1913 65.69 93.1813 66.89 95.1613 67.61C97.2013 68.33 100.231 67.43 104.251 64.91C108.331 62.33 114.991 53.81 124.231 39.35V41.69ZM115.681 5.33C115.201 4.01 113.551 7.13 110.731 14.69L101.821 36.83C103.741 34.37 105.511 31.97 107.131 29.63C108.751 27.23 110.401 24.29 112.081 20.81C113.761 17.27 114.901 14.15 115.501 11.45C116.161 8.69 116.221 6.65 115.681 5.33ZM147.685 41.87C148.945 44.45 149.335 47.21 148.855 50.15C148.375 53.03 147.595 55.73 146.515 58.25C145.435 60.71 143.695 63.32 141.295 66.08C143.815 65.36 146.725 63.26 150.025 59.78C153.325 56.24 158.185 49.43 164.605 39.35V41.96C159.145 51.14 154.585 57.62 150.925 61.4C147.265 65.12 143.635 67.61 140.035 68.87C136.435 70.07 133.075 70.73 129.955 70.85C126.895 70.91 124.135 70.58 121.675 69.86C119.215 69.14 117.295 68.09 115.915 66.71C114.595 65.33 113.725 63.95 113.305 62.57C112.885 61.19 112.735 59.42 112.855 57.26C112.975 55.1 113.395 52.91 114.115 50.69C114.835 48.41 115.585 46.55 116.365 45.11C117.205 43.61 118.495 42.05 120.235 40.43C121.975 38.81 124.105 37.61 126.625 36.83C129.145 35.99 131.875 35.6 134.815 35.66C137.755 35.66 140.305 36.05 142.465 36.83C144.685 37.61 146.425 39.29 147.685 41.87ZM118.705 53.84C118.225 56.6 118.135 58.94 118.435 60.86C118.795 62.78 119.785 64.31 121.405 65.45C123.085 66.59 124.945 67.19 126.985 67.25C129.085 67.31 131.095 66.92 133.015 66.08C134.935 65.24 136.555 63.95 137.875 62.21C139.195 60.47 140.425 58.43 141.565 56.09C142.765 53.69 143.515 51.14 143.815 48.44C144.115 45.68 143.395 43.43 141.655 41.69C139.975 39.95 137.695 39.11 134.815 39.17C131.935 39.23 129.445 39.83 127.345 40.97C125.245 42.05 123.415 43.76 121.855 46.1C120.295 48.44 119.245 51.02 118.705 53.84ZM160.026 33.41C161.886 32.15 163.836 31.7 165.876 32.06C167.916 32.42 168.876 33.23 168.756 34.49C168.696 35.69 168.066 36.95 166.866 38.27C170.646 36.17 174.276 35.39 177.756 35.93C181.236 36.47 183.876 37.61 185.676 39.35C187.536 41.03 188.886 43.25 189.726 46.01C190.626 48.71 191.736 49.73 193.056 49.07C194.436 48.41 197.196 45.29 201.336 39.71V41.69C198.216 46.31 195.606 49.28 193.506 50.6C191.406 51.86 189.816 51.35 188.736 49.07C187.716 46.73 186.666 44.81 185.586 43.31C184.506 41.75 182.886 40.64 180.726 39.98C178.626 39.32 176.586 39.17 174.606 39.53C172.626 39.83 170.916 40.49 169.476 41.51C168.036 42.47 166.926 43.61 166.146 44.93C165.366 46.25 162.756 53.48 158.316 66.62C157.596 68.42 156.336 69.32 154.536 69.32C152.796 69.32 152.226 68.24 152.826 66.08L159.756 46.19C160.836 43.61 160.686 41.15 159.306 38.81C157.926 36.47 158.166 34.67 160.026 33.41ZM164.166 38.45C166.746 35.09 167.046 33.5 165.066 33.68C163.146 33.8 162.846 35.39 164.166 38.45ZM224.059 60.59C223.039 63.17 222.919 65.06 223.699 66.26C224.479 67.46 225.919 68.09 228.019 68.15C230.119 68.21 232.759 66.95 235.939 64.37C239.179 61.79 244.969 53.48 253.309 39.44V41.87C245.689 55.07 240.019 63.38 236.299 66.8C232.639 70.22 228.499 71.6 223.879 70.94C222.019 70.94 220.399 70.16 219.019 68.6C217.699 67.04 217.609 64.37 218.749 60.59L226.849 39.71C227.629 37.79 228.859 37.04 230.539 37.46C232.219 37.82 232.579 39.05 231.619 41.15L224.059 60.59ZM231.079 26.39C231.079 25.49 231.379 24.71 231.979 24.05C232.639 23.39 233.419 23.06 234.319 23.06C235.219 23.06 235.999 23.39 236.659 24.05C237.319 24.71 237.649 25.49 237.649 26.39C237.649 27.29 237.319 28.07 236.659 28.73C235.999 29.33 235.219 29.63 234.319 29.63C233.419 29.63 232.639 29.33 231.979 28.73C231.379 28.07 231.079 27.29 231.079 26.39ZM253.923 44.48C256.263 43.34 259.683 42.44 264.183 41.78C268.743 41.06 272.133 40.79 274.353 40.97C276.573 41.09 276.243 40.76 273.363 39.98C270.543 39.2 267.393 38.99 263.913 39.35C260.493 39.71 258.003 40.52 256.443 41.78C254.943 43.04 254.103 43.94 253.923 44.48ZM253.833 46.1C253.893 47.36 254.493 48.41 255.633 49.25C256.773 50.03 258.393 50.78 260.493 51.5C262.593 52.22 264.813 52.91 267.153 53.57C269.553 54.23 271.353 55.34 272.553 56.9C273.813 58.46 274.113 60.32 273.453 62.48C272.793 64.64 271.023 66.26 268.143 67.34C265.263 68.36 262.263 68.87 259.143 68.87C256.023 68.87 251.643 68.21 246.003 66.89C253.263 69.41 259.263 70.34 264.003 69.68C268.743 69.02 273.153 66.92 277.233 63.38C281.373 59.84 287.133 51.83 294.513 39.35V41.78C288.333 53.24 282.993 60.86 278.493 64.64C274.053 68.36 269.583 70.58 265.083 71.3C260.583 71.96 256.083 71.72 251.583 70.58C247.143 69.38 244.053 68.18 242.313 66.98C240.573 65.72 239.943 64.73 240.423 64.01C240.903 63.29 242.073 63.05 243.933 63.29C245.793 63.53 248.373 63.98 251.673 64.64C254.973 65.3 258.273 65.51 261.573 65.27C264.873 65.03 266.943 63.95 267.783 62.03C268.683 60.11 268.323 58.7 266.703 57.8C265.083 56.84 262.803 55.94 259.863 55.1C256.923 54.26 254.373 53.27 252.213 52.13C250.053 50.99 248.703 49.19 248.163 46.73C247.623 44.27 248.523 41.99 250.863 39.89C253.263 37.79 256.593 36.5 260.853 36.02C265.173 35.48 268.833 35.54 271.833 36.2C274.893 36.8 276.933 37.55 277.953 38.45C278.973 39.35 279.303 40.31 278.943 41.33C278.643 42.29 276.993 42.71 273.993 42.59C270.993 42.47 267.483 42.8 263.463 43.58C259.503 44.3 256.293 45.14 253.833 46.1ZM343.957 1.28C345.937 1.28 346.567 1.91 345.847 3.17C351.607 2.75 356.647 4.07 360.967 7.13C365.347 10.19 367.837 14.69 368.437 20.63C369.097 26.51 368.977 32.09 368.077 37.37C367.177 42.59 365.797 47.27 363.937 51.41C362.137 55.55 359.827 59.45 357.007 63.11C354.187 66.77 350.737 69.2 346.657 70.4C342.637 71.54 338.407 71.87 333.967 71.39C329.587 70.85 325.297 69.23 321.097 66.53C320.077 68.63 319.087 70.16 318.127 71.12C317.167 72.08 316.177 72.62 315.157 72.74C314.137 72.86 312.907 72.8 311.467 72.56C310.087 72.32 308.737 71.36 307.417 69.68C306.157 68 306.067 66.08 307.147 63.92C308.227 61.7 309.667 60.35 311.467 59.87C313.267 59.33 315.547 59.63 318.307 60.77L339.187 7.67C333.547 8.63 329.737 9.95 327.757 11.63C325.777 13.31 324.727 14.81 324.607 16.13C324.547 17.39 325.087 18.41 326.227 19.19C327.367 19.91 327.787 20.69 327.487 21.53C327.247 22.31 326.647 22.64 325.687 22.52C324.787 22.34 323.797 21.8 322.717 20.9C321.697 20 321.037 18.95 320.737 17.75C320.497 16.55 320.677 15.05 321.277 13.25C321.877 11.45 323.527 9.62 326.227 7.76C328.927 5.9 333.697 4.43 340.537 3.35C340.897 1.97 342.037 1.28 343.957 1.28ZM344.497 7.04L323.077 62.57C327.277 65.21 331.177 66.77 334.777 67.25C338.377 67.67 341.707 67.43 344.767 66.53C347.887 65.57 351.217 62.66 354.757 57.8C358.297 52.94 360.787 47.27 362.227 40.79C363.667 34.25 364.057 28.07 363.397 22.25C362.737 16.43 360.727 12.35 357.367 10.01C354.067 7.61 349.777 6.62 344.497 7.04ZM311.107 65C310.147 66.44 310.447 67.67 312.007 68.69C313.627 69.65 315.127 68.36 316.507 64.82C313.927 63.5 312.127 63.56 311.107 65ZM387.778 1.72999C390.058 1.13 392.548 1.1 395.248 1.64C398.008 2.18 401.338 2.69 405.238 3.17C409.198 3.65 413.218 3.73999 417.298 3.43999C421.378 3.08 424.408 2.84 426.388 2.72C428.368 2.6 429.298 3.17 429.178 4.43C429.118 5.69 427.858 6.53 425.398 6.95C421.558 7.25 417.868 7.49 414.328 7.67C410.848 7.85 406.468 7.61 401.188 6.95C397.528 17.09 394.288 26.15 391.468 34.13C397.048 35.21 401.878 35.72 405.958 35.66C410.098 35.54 413.338 35.21 415.678 34.67C418.078 34.13 419.248 34.52 419.188 35.84C419.128 37.1 417.718 38.12 414.958 38.9C412.258 39.62 408.538 39.95 403.798 39.89C399.118 39.77 394.468 39.29 389.848 38.45C386.968 46.97 384.358 54.11 382.018 59.87C392.158 64.49 399.418 66.5 403.798 65.9C408.238 65.3 411.568 63.65 413.788 60.95V64.46C409.828 68.36 405.208 70.19 399.928 69.95C394.708 69.71 388.138 67.73 380.218 64.01C378.358 66.89 376.588 68.81 374.908 69.77C373.288 70.73 371.698 71.03 370.138 70.67C368.578 70.31 367.438 69.35 366.718 67.79C365.998 66.23 366.178 64.31 367.258 62.03C368.338 59.75 369.838 58.31 371.758 57.71C373.738 57.11 375.628 57.17 377.428 57.89C379.648 52.55 382.168 45.65 384.988 37.19C380.788 35.93 379.018 34.58 379.678 33.14C380.398 31.64 382.678 31.55 386.518 32.87C389.638 24.77 392.848 15.89 396.148 6.23C390.988 5.20999 387.868 5.38999 386.788 6.76999C385.708 8.09 385.228 9.38 385.348 10.64C385.468 11.9 385.018 12.47 383.998 12.35C383.038 12.23 382.258 11.54 381.658 10.28C381.058 8.96 381.358 7.37 382.558 5.50999C383.818 3.58999 385.558 2.32999 387.778 1.72999ZM370.498 63.83C370.138 65.09 370.498 65.87 371.578 66.17C372.718 66.47 373.978 65 375.358 61.76C374.398 61.22 373.438 61.13 372.478 61.49C371.578 61.79 370.918 62.57 370.498 63.83ZM452.899 1.46C456.799 1.4 459.079 2.14999 459.739 3.71C460.399 5.27 460.459 6.95 459.919 8.75C459.379 10.55 458.059 11.78 455.959 12.44C453.859 13.1 451.189 13.37 447.949 13.25C442.249 30.11 436.849 46.16 431.749 61.4C438.649 63.62 443.689 64.94 446.869 65.36C450.109 65.78 453.049 65.75 455.689 65.27C458.389 64.73 460.279 63.44 461.359 61.4L461.269 64.28C455.869 71 445.549 71.42 430.309 65.54C429.589 68.06 428.269 69.71 426.349 70.49C424.489 71.27 422.509 71.33 420.409 70.67C418.369 70.01 417.289 68.63 417.169 66.53C417.109 64.37 417.589 62.75 418.609 61.67C419.689 60.59 420.799 59.96 421.939 59.78C423.139 59.54 424.759 59.63 426.799 60.05C431.239 47.57 436.699 31.67 443.179 12.35C437.179 9.83 434.239 8.03 434.359 6.95C434.539 5.81 435.499 5.81 437.239 6.95C438.979 8.03 441.199 9.08 443.899 10.1C446.059 4.34 449.059 1.46 452.899 1.46ZM448.759 11C454.699 11.12 457.849 9.98 458.209 7.57999C458.569 5.18 457.429 4.07 454.789 4.24999C452.149 4.43 450.139 6.68 448.759 11ZM421.129 66.62C421.489 67.4 422.119 67.64 423.019 67.34C423.979 66.98 424.759 65.96 425.359 64.28C423.619 63.56 422.389 63.56 421.669 64.28C421.009 65 420.829 65.78 421.129 66.62ZM502.153 1.00999C503.893 0.649994 505.753 0.619995 507.733 0.919995C509.773 1.21999 511.333 1.97 512.413 3.17C513.553 4.37 513.793 5.84 513.133 7.57999C512.473 9.32 510.973 10.07 508.633 9.83C506.533 9.23 504.283 8.66 501.883 8.12C493.663 27.38 486.133 46.22 479.293 64.64C485.233 66.02 490.243 66.53 494.323 66.17C498.403 65.81 501.613 64.52 503.953 62.3L503.863 66.17C497.623 70.91 488.893 71.78 477.673 68.78C477.073 70.22 475.993 71.24 474.433 71.84C472.873 72.44 470.833 72.74 468.313 72.74C465.853 72.74 463.753 72.14 462.013 70.94C460.333 69.68 459.973 68.09 460.933 66.17C461.893 64.19 463.363 63.02 465.343 62.66C467.383 62.3 470.383 62.57 474.343 63.47C481.363 45.17 488.803 26.54 496.663 7.57999C489.103 6.86 481.993 7.46 475.333 9.38C471.673 10.04 470.293 9.5 471.193 7.76C472.153 5.96 475.123 4.63999 480.103 3.8C485.143 2.96 491.263 2.83999 498.463 3.43999C499.183 2.18 500.413 1.37 502.153 1.00999ZM502.693 4.16C505.753 4.7 507.943 5.21 509.263 5.69C510.343 5.93 510.763 5.66 510.523 4.88C510.283 4.1 509.263 3.53 507.463 3.17C505.723 2.75 504.133 3.08 502.693 4.16ZM472.723 67.61C468.583 66.83 466.003 66.95 464.983 67.97C464.023 68.99 464.803 69.68 467.323 70.04C469.843 70.4 471.643 69.59 472.723 67.61ZM542.691 1.72999C547.251 2.81 550.281 5.3 551.781 9.2C553.341 13.04 553.851 17.12 553.311 21.44C552.771 25.76 551.871 29.42 550.611 32.42C549.351 35.42 548.241 36.86 547.281 36.74C546.321 36.62 546.021 36.14 546.381 35.3C546.741 34.46 547.221 32.9 547.821 30.62C548.481 28.28 548.901 25.31 549.081 21.71C549.261 18.11 548.751 14.87 547.551 11.99C546.411 9.05 544.821 7.15999 542.781 6.31999C540.801 5.47999 538.461 5.27 535.761 5.69C533.061 6.11 530.271 7.37 527.391 9.47C524.511 11.57 521.721 14.75 519.021 19.01C516.321 23.21 514.251 27.5 512.811 31.88C511.431 36.2 510.561 40.31 510.201 44.21C509.901 48.11 510.111 51.71 510.831 55.01C511.551 58.31 512.961 61.13 515.061 63.47C517.161 65.75 519.981 66.98 523.521 67.16C527.061 67.34 530.541 65.66 533.961 62.12C537.441 58.58 540.351 52.43 542.691 43.67L529.101 43.58C527.601 43.82 526.671 43.16 526.311 41.6C526.011 39.98 526.671 39.17 528.291 39.17L545.301 39.26C547.821 39.32 548.601 41.24 547.641 45.02C546.081 50.42 544.401 54.8 542.601 58.16C540.861 61.52 538.881 64.19 536.661 66.17C534.501 68.09 532.011 69.47 529.191 70.31C526.371 71.15 523.371 71.33 520.191 70.85C517.011 70.37 514.491 69.38 512.631 67.88C510.771 66.38 509.241 64.58 508.041 62.48C506.841 60.38 505.971 57.83 505.431 54.83C504.891 51.83 504.711 48.56 504.891 45.02C505.071 41.48 505.851 37.25 507.231 32.33C508.671 27.35 511.251 21.95 514.971 16.13C518.691 10.25 523.101 6.11 528.201 3.71C533.301 1.30999 538.131 0.649994 542.691 1.72999ZM582.672 0.649998C583.872 0.769997 584.892 0.949996 585.732 1.19C586.632 1.43 587.202 2.03 587.442 2.98999C587.742 3.89 587.262 4.76 586.002 5.6C584.802 6.38 582.762 7.18999 579.882 8.02999C576.942 18.65 574.152 27.83 571.512 35.57C577.992 35.57 584.472 34.79 590.952 33.23C592.872 27.11 595.422 20.78 598.602 14.24C601.782 7.7 603.942 3.8 605.082 2.54C606.222 1.28 607.632 0.649998 609.312 0.649998C611.052 0.589995 612.282 1.01 613.002 1.91C613.782 2.81 613.932 5.63 613.452 10.37C612.972 15.11 611.562 19.64 609.222 23.96C606.882 28.22 604.602 31.34 602.382 33.32C600.162 35.24 597.702 36.56 595.002 37.28C592.662 45.5 591.552 51.77 591.672 56.09C591.852 60.41 593.202 63.68 595.722 65.9C598.242 68.12 600.342 69.53 602.022 70.13C605.142 71.33 608.682 72.11 612.642 72.47C616.662 72.77 618.792 73.19 619.032 73.73C619.272 74.21 615.852 74.42 608.772 74.36C601.692 74.24 595.722 71.9 590.862 67.34C588.462 65.06 587.052 61.64 586.632 57.08C586.272 52.46 587.262 46.13 589.602 38.09C583.482 39.29 577.032 39.86 570.252 39.8C566.532 50.3 563.622 58.07 561.522 63.11C559.422 68.09 557.172 70.7 554.772 70.94C552.432 71.18 550.782 70.88 549.822 70.04C548.922 69.2 548.502 66.8 548.562 62.84C548.622 58.82 549.222 54.86 550.362 50.96C551.502 47.06 553.302 43.58 555.762 40.52C558.282 37.46 561.852 35.81 566.472 35.57C569.232 27.17 572.082 17.96 575.022 7.94C569.862 7.22 565.962 6.47 563.322 5.69C560.742 4.85 559.542 4.16 559.722 3.62C559.962 3.08 561.342 3.2 563.862 3.98C566.442 4.76 570.342 5.47999 575.562 6.14C576.402 3.92 577.482 2.42 578.802 1.64C580.182 0.859995 581.472 0.529996 582.672 0.649998ZM580.692 6.05C582.252 5.57 583.692 4.91 585.012 4.07C586.332 3.23 586.122 2.66 584.382 2.36C582.702 1.99999 581.472 3.23 580.692 6.05ZM596.172 32.51C600.372 31.55 603.762 28.76 606.342 24.14C608.982 19.52 610.542 14.9 611.022 10.28C611.562 5.6 611.232 3.38 610.032 3.62C608.832 3.86 607.182 6.11 605.082 10.37C603.042 14.63 601.392 18.23 600.132 21.17C598.872 24.11 597.552 27.89 596.172 32.51ZM551.172 59.15C550.692 63.71 550.752 66.62 551.352 67.88C552.012 69.14 553.002 68.9 554.322 67.16C555.642 65.36 559.272 56.27 565.212 39.89C560.892 40.01 557.592 42.11 555.312 46.19C553.032 50.21 551.652 54.53 551.172 59.15ZM653.94 1.55C657.24 1.72999 658.89 2.50999 658.89 3.88999C658.89 5.20999 657.3 5.81 654.12 5.69C648.48 5.57 644.46 5.6 642.06 5.78C634.32 21.74 629.07 33.62 626.31 41.42C623.61 49.22 622.23 54.8 622.17 58.16C622.11 61.46 623.1 64.04 625.14 65.9C627.24 67.76 630.21 68.54 634.05 68.24C637.95 67.88 641.88 65.63 645.84 61.49V64.46C642.36 68.3 638.22 70.52 633.42 71.12C628.68 71.72 624.99 71.18 622.35 69.5C619.71 67.76 618.09 65.33 617.49 62.21C616.95 59.03 617.25 54.77 618.39 49.43C619.53 44.03 625.5 29.54 636.3 5.95999C629.28 6.08 624.42 6.77 621.72 8.02999C619.02 9.23 617.1 10.76 615.96 12.62C614.82 14.42 614.4 16.13 614.7 17.75C615.06 19.37 615.75 20.57 616.77 21.35C617.85 22.13 619.14 22.1 620.64 21.26C622.2 20.42 622.56 20.69 621.72 22.07C620.88 23.39 619.32 24.05 617.04 24.05C614.76 24.05 612.84 22.88 611.28 20.54C609.72 18.14 609.87 14.96 611.73 11C613.59 6.98 617.07 4.31 622.17 2.98999C627.33 1.66999 637.92 1.18999 653.94 1.55Z" fill="url(#paint0_linear_1135_5804)"/>
<defs>
<linearGradient id="paint0_linear_1135_5804" x1="-2" y1="55" x2="662" y2="55" gradientUnits="userSpaceOnUse">
<stop stop-color="#A4A7DA"/>
<stop offset="0.444" stop-color="white"/>
<stop offset="1" stop-color="#A4A7DA"/>
</linearGradient>
</defs>
</svg>
