<svg width="492" height="476" viewBox="0 0 492 476" fill="none" xmlns="http://www.w3.org/2000/svg">
<g clip-path="url(#clip0_120_7881)">
<path fill-rule="evenodd" clip-rule="evenodd" d="M0 0.984375H24.1308L45.5803 214.928L65.6894 0.984375H101.886L123.335 214.928L144.784 0.984375H168.916L140.763 238.473L168.916 475.961H144.784L123.335 265.088L103.226 475.961H65.6894L45.5803 265.088L24.1308 475.961H0L26.812 238.473L0 0.984375ZM84.4577 26.5758L65.6894 240.52L84.4577 452.416L103.226 240.52L84.4577 26.5758Z" fill="black"/>
<path fill-rule="evenodd" clip-rule="evenodd" d="M218.518 0.984375H254.714L290.91 239.496L256.055 475.961H217.177L182.322 239.496L218.518 0.984375ZM235.946 26.5758L217.177 172.959H256.055L235.946 26.5758ZM258.737 190.361H214.497L207.793 241.543L214.497 287.608H258.737L265.439 241.543L258.737 190.361ZM237.286 452.416L217.177 305.01H254.714L237.286 452.416Z" fill="black"/>
<path fill-rule="evenodd" clip-rule="evenodd" d="M304.316 0H329.789V117.721H335.15L378.049 0H402.181L356.6 125.91L396.818 237.488L356.6 349.066L402.181 476H378.049L335.15 358.279H329.789V476H304.316V0ZM329.789 134.099H333.81L371.347 237.488L333.81 341.901H329.789V134.099Z" fill="black"/>
<path d="M491.996 0V16.3785H441.053V115.673H481.272V132.051H441.053V230.323H491.996V245.677H441.053V343.949H482.613V360.327H441.053V460.646H491.996V476H415.582V0H491.996Z" fill="black"/>
</g>
<defs>
<clipPath id="clip0_120_7881">
<rect width="492" height="476" fill="white"/>
</clipPath>
</defs>
</svg>
