<svg width="48" height="48" viewBox="0 0 48 48" fill="none" xmlns="http://www.w3.org/2000/svg">
<path fill-rule="evenodd" clip-rule="evenodd" d="M29.6895 0H32.1738V11.8711H32.6973L36.8828 0H39.2363L34.791 12.6973L38.7148 23.9492L34.791 35.1992L39.2363 48H36.8828L32.6973 36.1289H32.1738V48H29.6895V0ZM32.1738 13.5234H32.5664L36.2285 23.9492L32.5664 34.4766H32.1738V13.5234ZM2.35352 0.101562H0L2.61523 24.0508L0 47.998H2.35352L4.44727 26.7344L6.4082 47.998H10.0703L12.0332 26.7344L14.125 47.998H16.4805L13.7324 24.0508L16.4805 0.101562H14.125L12.0332 21.6758L9.93945 0.101562H6.4082L4.44727 21.6758L2.35352 0.101562ZM6.4082 24.2559L8.24023 2.68164L10.0703 24.2559L8.24023 45.625L6.4082 24.2559ZM24.8496 0.101562H21.3184L17.7871 24.1523L21.1875 47.998H24.9805L28.3809 24.1523L24.8496 0.101562ZM21.1875 17.4434L23.0195 2.68164L24.9805 17.4434H21.1875ZM20.9258 19.1992H25.2422L25.8965 24.3594L25.2422 29.0039H20.9258L20.2715 24.3594L20.9258 19.1992ZM21.1875 30.7598L23.1504 45.625L24.8496 30.7598H21.1875ZM48 1.65234V0H40.5449V48H48V46.4512H43.0293V36.3359H47.084V34.6836H43.0293V24.7734H48V23.2266H43.0293V13.3164H46.9531V11.6641H43.0293V1.65234H48Z" fill="black"/>
</svg>
